<svg xmlns="http://www.w3.org/2000/svg" width="1200" height="280" viewBox="0 0 1200 280" role="img" aria-label="Huiyang Lin — AI agents and auditable automation">
<defs>
<linearGradient id="bg" x1="0" y1="0" x2="1" y2="1"><stop offset="0%" stop-color="#080d1a"/><stop offset="50%" stop-color="#0d1730"/><stop offset="100%" stop-color="#131e3c"/></linearGradient>
<linearGradient id="topbar" x1="0" y1="0" x2="1" y2="0"><stop offset="0%" stop-color="#58a6ff"/><stop offset="45%" stop-color="#6ea8fe"/><stop offset="100%" stop-color="#7ee0c8" stop-opacity="0.05"/></linearGradient>
<linearGradient id="rule" x1="0" y1="0" x2="1" y2="0"><stop offset="0%" stop-color="#58a6ff"/><stop offset="100%" stop-color="#7ee0c8" stop-opacity="0.1"/></linearGradient>
<radialGradient id="glow" cx="50%" cy="50%" r="50%"><stop offset="0%" stop-color="#4d8fe0" stop-opacity="0.26"/><stop offset="45%" stop-color="#3d78c8" stop-opacity="0.10"/><stop offset="100%" stop-color="#2a5da8" stop-opacity="0"/></radialGradient>
<radialGradient id="core" cx="50%" cy="50%" r="50%"><stop offset="0%" stop-color="#58a6ff" stop-opacity="0.13"/><stop offset="70%" stop-color="#58a6ff" stop-opacity="0.05"/><stop offset="100%" stop-color="#58a6ff" stop-opacity="0.01"/></radialGradient>
</defs>
<rect width="1200" height="280" fill="url(#bg)"/>
<circle cx="16" cy="16" r="0.9" fill="#58a6ff" fill-opacity="0.07"/>
<circle cx="46" cy="16" r="0.9" fill="#58a6ff" fill-opacity="0.07"/>
<circle cx="76" cy="16" r="0.9" fill="#58a6ff" fill-opacity="0.07"/>
<circle cx="106" cy="16" r="0.9" fill="#58a6ff" fill-opacity="0.07"/>
<circle cx="136" cy="16" r="0.9" fill="#58a6ff" fill-opacity="0.07"/>
<circle cx="166" cy="16" r="0.9" fill="#58a6ff" fill-opacity="0.07"/>
<circle cx="196" cy="16" r="0.9" fill="#58a6ff" fill-opacity="0.07"/>
<circle cx="226" cy="16" r="0.9" fill="#58a6ff" fill-opacity="0.07"/>
<circle cx="256" cy="16" r="0.9" fill="#58a6ff" fill-opacity="0.07"/>
<circle cx="286" cy="16" r="0.9" fill="#58a6ff" fill-opacity="0.07"/>
<circle cx="316" cy="16" r="0.9" fill="#58a6ff" fill-opacity="0.07"/>
<circle cx="346" cy="16" r="0.9" fill="#58a6ff" fill-opacity="0.07"/>
<circle cx="376" cy="16" r="0.9" fill="#58a6ff" fill-opacity="0.07"/>
<circle cx="406" cy="16" r="0.9" fill="#58a6ff" fill-opacity="0.07"/>
<circle cx="436" cy="16" r="0.9" fill="#58a6ff" fill-opacity="0.07"/>
<circle cx="466" cy="16" r="0.9" fill="#58a6ff" fill-opacity="0.07"/>
<circle cx="496" cy="16" r="0.9" fill="#58a6ff" fill-opacity="0.07"/>
<circle cx="526" cy="16" r="0.9" fill="#58a6ff" fill-opacity="0.07"/>
<circle cx="556" cy="16" r="0.9" fill="#58a6ff" fill-opacity="0.07"/>
<circle cx="586" cy="16" r="0.9" fill="#58a6ff" fill-opacity="0.07"/>
<circle cx="616" cy="16" r="0.9" fill="#58a6ff" fill-opacity="0.07"/>
<circle cx="646" cy="16" r="0.9" fill="#58a6ff" fill-opacity="0.07"/>
<circle cx="676" cy="16" r="0.9" fill="#58a6ff" fill-opacity="0.07"/>
<circle cx="706" cy="16" r="0.9" fill="#58a6ff" fill-opacity="0.07"/>
<circle cx="736" cy="16" r="0.9" fill="#58a6ff" fill-opacity="0.07"/>
<circle cx="766" cy="16" r="0.9" fill="#58a6ff" fill-opacity="0.07"/>
<circle cx="796" cy="16" r="0.9" fill="#58a6ff" fill-opacity="0.07"/>
<circle cx="826" cy="16" r="0.9" fill="#58a6ff" fill-opacity="0.07"/>
<circle cx="856" cy="16" r="0.9" fill="#58a6ff" fill-opacity="0.07"/>
<circle cx="886" cy="16" r="0.9" fill="#58a6ff" fill-opacity="0.07"/>
<circle cx="916" cy="16" r="0.9" fill="#58a6ff" fill-opacity="0.07"/>
<circle cx="946" cy="16" r="0.9" fill="#58a6ff" fill-opacity="0.07"/>
<circle cx="976" cy="16" r="0.9" fill="#58a6ff" fill-opacity="0.07"/>
<circle cx="1006" cy="16" r="0.9" fill="#58a6ff" fill-opacity="0.07"/>
<circle cx="1036" cy="16" r="0.9" fill="#58a6ff" fill-opacity="0.07"/>
<circle cx="1066" cy="16" r="0.9" fill="#58a6ff" fill-opacity="0.07"/>
<circle cx="1096" cy="16" r="0.9" fill="#58a6ff" fill-opacity="0.07"/>
<circle cx="1126" cy="16" r="0.9" fill="#58a6ff" fill-opacity="0.07"/>
<circle cx="1156" cy="16" r="0.9" fill="#58a6ff" fill-opacity="0.07"/>
<circle cx="1186" cy="16" r="0.9" fill="#58a6ff" fill-opacity="0.07"/>
<circle cx="16" cy="46" r="0.9" fill="#58a6ff" fill-opacity="0.07"/>
<circle cx="46" cy="46" r="0.9" fill="#58a6ff" fill-opacity="0.07"/>
<circle cx="76" cy="46" r="0.9" fill="#58a6ff" fill-opacity="0.07"/>
<circle cx="106" cy="46" r="0.9" fill="#58a6ff" fill-opacity="0.07"/>
<circle cx="136" cy="46" r="0.9" fill="#58a6ff" fill-opacity="0.07"/>
<circle cx="166" cy="46" r="0.9" fill="#58a6ff" fill-opacity="0.07"/>
<circle cx="196" cy="46" r="0.9" fill="#58a6ff" fill-opacity="0.07"/>
<circle cx="226" cy="46" r="0.9" fill="#58a6ff" fill-opacity="0.07"/>
<circle cx="256" cy="46" r="0.9" fill="#58a6ff" fill-opacity="0.07"/>
<circle cx="286" cy="46" r="0.9" fill="#58a6ff" fill-opacity="0.07"/>
<circle cx="316" cy="46" r="0.9" fill="#58a6ff" fill-opacity="0.07"/>
<circle cx="346" cy="46" r="0.9" fill="#58a6ff" fill-opacity="0.07"/>
<circle cx="376" cy="46" r="0.9" fill="#58a6ff" fill-opacity="0.07"/>
<circle cx="406" cy="46" r="0.9" fill="#58a6ff" fill-opacity="0.07"/>
<circle cx="436" cy="46" r="0.9" fill="#58a6ff" fill-opacity="0.07"/>
<circle cx="466" cy="46" r="0.9" fill="#58a6ff" fill-opacity="0.07"/>
<circle cx="496" cy="46" r="0.9" fill="#58a6ff" fill-opacity="0.07"/>
<circle cx="526" cy="46" r="0.9" fill="#58a6ff" fill-opacity="0.07"/>
<circle cx="556" cy="46" r="0.9" fill="#58a6ff" fill-opacity="0.07"/>
<circle cx="586" cy="46" r="0.9" fill="#58a6ff" fill-opacity="0.07"/>
<circle cx="616" cy="46" r="0.9" fill="#58a6ff" fill-opacity="0.07"/>
<circle cx="646" cy="46" r="0.9" fill="#58a6ff" fill-opacity="0.07"/>
<circle cx="676" cy="46" r="0.9" fill="#58a6ff" fill-opacity="0.07"/>
<circle cx="706" cy="46" r="0.9" fill="#58a6ff" fill-opacity="0.07"/>
<circle cx="736" cy="46" r="0.9" fill="#58a6ff" fill-opacity="0.07"/>
<circle cx="766" cy="46" r="0.9" fill="#58a6ff" fill-opacity="0.07"/>
<circle cx="796" cy="46" r="0.9" fill="#58a6ff" fill-opacity="0.07"/>
<circle cx="826" cy="46" r="0.9" fill="#58a6ff" fill-opacity="0.07"/>
<circle cx="856" cy="46" r="0.9" fill="#58a6ff" fill-opacity="0.07"/>
<circle cx="886" cy="46" r="0.9" fill="#58a6ff" fill-opacity="0.07"/>
<circle cx="916" cy="46" r="0.9" fill="#58a6ff" fill-opacity="0.07"/>
<circle cx="946" cy="46" r="0.9" fill="#58a6ff" fill-opacity="0.07"/>
<circle cx="976" cy="46" r="0.9" fill="#58a6ff" fill-opacity="0.07"/>
<circle cx="1006" cy="46" r="0.9" fill="#58a6ff" fill-opacity="0.07"/>
<circle cx="1036" cy="46" r="0.9" fill="#58a6ff" fill-opacity="0.07"/>
<circle cx="1066" cy="46" r="0.9" fill="#58a6ff" fill-opacity="0.07"/>
<circle cx="1096" cy="46" r="0.9" fill="#58a6ff" fill-opacity="0.07"/>
<circle cx="1126" cy="46" r="0.9" fill="#58a6ff" fill-opacity="0.07"/>
<circle cx="1156" cy="46" r="0.9" fill="#58a6ff" fill-opacity="0.07"/>
<circle cx="1186" cy="46" r="0.9" fill="#58a6ff" fill-opacity="0.07"/>
<circle cx="16" cy="76" r="0.9" fill="#58a6ff" fill-opacity="0.07"/>
<circle cx="46" cy="76" r="0.9" fill="#58a6ff" fill-opacity="0.07"/>
<circle cx="76" cy="76" r="0.9" fill="#58a6ff" fill-opacity="0.07"/>
<circle cx="106" cy="76" r="0.9" fill="#58a6ff" fill-opacity="0.07"/>
<circle cx="136" cy="76" r="0.9" fill="#58a6ff" fill-opacity="0.07"/>
<circle cx="166" cy="76" r="0.9" fill="#58a6ff" fill-opacity="0.07"/>
<circle cx="196" cy="76" r="0.9" fill="#58a6ff" fill-opacity="0.07"/>
<circle cx="226" cy="76" r="0.9" fill="#58a6ff" fill-opacity="0.07"/>
<circle cx="256" cy="76" r="0.9" fill="#58a6ff" fill-opacity="0.07"/>
<circle cx="286" cy="76" r="0.9" fill="#58a6ff" fill-opacity="0.07"/>
<circle cx="316" cy="76" r="0.9" fill="#58a6ff" fill-opacity="0.07"/>
<circle cx="346" cy="76" r="0.9" fill="#58a6ff" fill-opacity="0.07"/>
<circle cx="376" cy="76" r="0.9" fill="#58a6ff" fill-opacity="0.07"/>
<circle cx="406" cy="76" r="0.9" fill="#58a6ff" fill-opacity="0.07"/>
<circle cx="436" cy="76" r="0.9" fill="#58a6ff" fill-opacity="0.07"/>
<circle cx="466" cy="76" r="0.9" fill="#58a6ff" fill-opacity="0.07"/>
<circle cx="496" cy="76" r="0.9" fill="#58a6ff" fill-opacity="0.07"/>
<circle cx="526" cy="76" r="0.9" fill="#58a6ff" fill-opacity="0.07"/>
<circle cx="556" cy="76" r="0.9" fill="#58a6ff" fill-opacity="0.07"/>
<circle cx="586" cy="76" r="0.9" fill="#58a6ff" fill-opacity="0.07"/>
<circle cx="616" cy="76" r="0.9" fill="#58a6ff" fill-opacity="0.07"/>
<circle cx="646" cy="76" r="0.9" fill="#58a6ff" fill-opacity="0.07"/>
<circle cx="676" cy="76" r="0.9" fill="#58a6ff" fill-opacity="0.07"/>
<circle cx="706" cy="76" r="0.9" fill="#58a6ff" fill-opacity="0.07"/>
<circle cx="736" cy="76" r="0.9" fill="#58a6ff" fill-opacity="0.07"/>
<circle cx="766" cy="76" r="0.9" fill="#58a6ff" fill-opacity="0.07"/>
<circle cx="796" cy="76" r="0.9" fill="#58a6ff" fill-opacity="0.07"/>
<circle cx="826" cy="76" r="0.9" fill="#58a6ff" fill-opacity="0.07"/>
<circle cx="856" cy="76" r="0.9" fill="#58a6ff" fill-opacity="0.07"/>
<circle cx="886" cy="76" r="0.9" fill="#58a6ff" fill-opacity="0.07"/>
<circle cx="916" cy="76" r="0.9" fill="#58a6ff" fill-opacity="0.07"/>
<circle cx="946" cy="76" r="0.9" fill="#58a6ff" fill-opacity="0.07"/>
<circle cx="976" cy="76" r="0.9" fill="#58a6ff" fill-opacity="0.07"/>
<circle cx="1006" cy="76" r="0.9" fill="#58a6ff" fill-opacity="0.07"/>
<circle cx="1036" cy="76" r="0.9" fill="#58a6ff" fill-opacity="0.07"/>
<circle cx="1066" cy="76" r="0.9" fill="#58a6ff" fill-opacity="0.07"/>
<circle cx="1096" cy="76" r="0.9" fill="#58a6ff" fill-opacity="0.07"/>
<circle cx="1126" cy="76" r="0.9" fill="#58a6ff" fill-opacity="0.07"/>
<circle cx="1156" cy="76" r="0.9" fill="#58a6ff" fill-opacity="0.07"/>
<circle cx="1186" cy="76" r="0.9" fill="#58a6ff" fill-opacity="0.07"/>
<circle cx="16" cy="106" r="0.9" fill="#58a6ff" fill-opacity="0.07"/>
<circle cx="46" cy="106" r="0.9" fill="#58a6ff" fill-opacity="0.07"/>
<circle cx="76" cy="106" r="0.9" fill="#58a6ff" fill-opacity="0.07"/>
<circle cx="106" cy="106" r="0.9" fill="#58a6ff" fill-opacity="0.07"/>
<circle cx="136" cy="106" r="0.9" fill="#58a6ff" fill-opacity="0.07"/>
<circle cx="166" cy="106" r="0.9" fill="#58a6ff" fill-opacity="0.07"/>
<circle cx="196" cy="106" r="0.9" fill="#58a6ff" fill-opacity="0.07"/>
<circle cx="226" cy="106" r="0.9" fill="#58a6ff" fill-opacity="0.07"/>
<circle cx="256" cy="106" r="0.9" fill="#58a6ff" fill-opacity="0.07"/>
<circle cx="286" cy="106" r="0.9" fill="#58a6ff" fill-opacity="0.07"/>
<circle cx="316" cy="106" r="0.9" fill="#58a6ff" fill-opacity="0.07"/>
<circle cx="346" cy="106" r="0.9" fill="#58a6ff" fill-opacity="0.07"/>
<circle cx="376" cy="106" r="0.9" fill="#58a6ff" fill-opacity="0.07"/>
<circle cx="406" cy="106" r="0.9" fill="#58a6ff" fill-opacity="0.07"/>
<circle cx="436" cy="106" r="0.9" fill="#58a6ff" fill-opacity="0.07"/>
<circle cx="466" cy="106" r="0.9" fill="#58a6ff" fill-opacity="0.07"/>
<circle cx="496" cy="106" r="0.9" fill="#58a6ff" fill-opacity="0.07"/>
<circle cx="526" cy="106" r="0.9" fill="#58a6ff" fill-opacity="0.07"/>
<circle cx="556" cy="106" r="0.9" fill="#58a6ff" fill-opacity="0.07"/>
<circle cx="586" cy="106" r="0.9" fill="#58a6ff" fill-opacity="0.07"/>
<circle cx="616" cy="106" r="0.9" fill="#58a6ff" fill-opacity="0.07"/>
<circle cx="646" cy="106" r="0.9" fill="#58a6ff" fill-opacity="0.07"/>
<circle cx="676" cy="106" r="0.9" fill="#58a6ff" fill-opacity="0.07"/>
<circle cx="706" cy="106" r="0.9" fill="#58a6ff" fill-opacity="0.07"/>
<circle cx="736" cy="106" r="0.9" fill="#58a6ff" fill-opacity="0.07"/>
<circle cx="766" cy="106" r="0.9" fill="#58a6ff" fill-opacity="0.07"/>
<circle cx="796" cy="106" r="0.9" fill="#58a6ff" fill-opacity="0.07"/>
<circle cx="826" cy="106" r="0.9" fill="#58a6ff" fill-opacity="0.07"/>
<circle cx="856" cy="106" r="0.9" fill="#58a6ff" fill-opacity="0.07"/>
<circle cx="886" cy="106" r="0.9" fill="#58a6ff" fill-opacity="0.07"/>
<circle cx="916" cy="106" r="0.9" fill="#58a6ff" fill-opacity="0.07"/>
<circle cx="946" cy="106" r="0.9" fill="#58a6ff" fill-opacity="0.07"/>
<circle cx="976" cy="106" r="0.9" fill="#58a6ff" fill-opacity="0.07"/>
<circle cx="1006" cy="106" r="0.9" fill="#58a6ff" fill-opacity="0.07"/>
<circle cx="1036" cy="106" r="0.9" fill="#58a6ff" fill-opacity="0.07"/>
<circle cx="1066" cy="106" r="0.9" fill="#58a6ff" fill-opacity="0.07"/>
<circle cx="1096" cy="106" r="0.9" fill="#58a6ff" fill-opacity="0.07"/>
<circle cx="1126" cy="106" r="0.9" fill="#58a6ff" fill-opacity="0.07"/>
<circle cx="1156" cy="106" r="0.9" fill="#58a6ff" fill-opacity="0.07"/>
<circle cx="1186" cy="106" r="0.9" fill="#58a6ff" fill-opacity="0.07"/>
<circle cx="16" cy="136" r="0.9" fill="#58a6ff" fill-opacity="0.07"/>
<circle cx="46" cy="136" r="0.9" fill="#58a6ff" fill-opacity="0.07"/>
<circle cx="76" cy="136" r="0.9" fill="#58a6ff" fill-opacity="0.07"/>
<circle cx="106" cy="136" r="0.9" fill="#58a6ff" fill-opacity="0.07"/>
<circle cx="136" cy="136" r="0.9" fill="#58a6ff" fill-opacity="0.07"/>
<circle cx="166" cy="136" r="0.9" fill="#58a6ff" fill-opacity="0.07"/>
<circle cx="196" cy="136" r="0.9" fill="#58a6ff" fill-opacity="0.07"/>
<circle cx="226" cy="136" r="0.9" fill="#58a6ff" fill-opacity="0.07"/>
<circle cx="256" cy="136" r="0.9" fill="#58a6ff" fill-opacity="0.07"/>
<circle cx="286" cy="136" r="0.9" fill="#58a6ff" fill-opacity="0.07"/>
<circle cx="316" cy="136" r="0.9" fill="#58a6ff" fill-opacity="0.07"/>
<circle cx="346" cy="136" r="0.9" fill="#58a6ff" fill-opacity="0.07"/>
<circle cx="376" cy="136" r="0.9" fill="#58a6ff" fill-opacity="0.07"/>
<circle cx="406" cy="136" r="0.9" fill="#58a6ff" fill-opacity="0.07"/>
<circle cx="436" cy="136" r="0.9" fill="#58a6ff" fill-opacity="0.07"/>
<circle cx="466" cy="136" r="0.9" fill="#58a6ff" fill-opacity="0.07"/>
<circle cx="496" cy="136" r="0.9" fill="#58a6ff" fill-opacity="0.07"/>
<circle cx="526" cy="136" r="0.9" fill="#58a6ff" fill-opacity="0.07"/>
<circle cx="556" cy="136" r="0.9" fill="#58a6ff" fill-opacity="0.07"/>
<circle cx="586" cy="136" r="0.9" fill="#58a6ff" fill-opacity="0.07"/>
<circle cx="616" cy="136" r="0.9" fill="#58a6ff" fill-opacity="0.07"/>
<circle cx="646" cy="136" r="0.9" fill="#58a6ff" fill-opacity="0.07"/>
<circle cx="676" cy="136" r="0.9" fill="#58a6ff" fill-opacity="0.07"/>
<circle cx="706" cy="136" r="0.9" fill="#58a6ff" fill-opacity="0.07"/>
<circle cx="736" cy="136" r="0.9" fill="#58a6ff" fill-opacity="0.07"/>
<circle cx="766" cy="136" r="0.9" fill="#58a6ff" fill-opacity="0.07"/>
<circle cx="796" cy="136" r="0.9" fill="#58a6ff" fill-opacity="0.07"/>
<circle cx="826" cy="136" r="0.9" fill="#58a6ff" fill-opacity="0.07"/>
<circle cx="856" cy="136" r="0.9" fill="#58a6ff" fill-opacity="0.07"/>
<circle cx="886" cy="136" r="0.9" fill="#58a6ff" fill-opacity="0.07"/>
<circle cx="916" cy="136" r="0.9" fill="#58a6ff" fill-opacity="0.07"/>
<circle cx="946" cy="136" r="0.9" fill="#58a6ff" fill-opacity="0.07"/>
<circle cx="976" cy="136" r="0.9" fill="#58a6ff" fill-opacity="0.07"/>
<circle cx="1006" cy="136" r="0.9" fill="#58a6ff" fill-opacity="0.07"/>
<circle cx="1036" cy="136" r="0.9" fill="#58a6ff" fill-opacity="0.07"/>
<circle cx="1066" cy="136" r="0.9" fill="#58a6ff" fill-opacity="0.07"/>
<circle cx="1096" cy="136" r="0.9" fill="#58a6ff" fill-opacity="0.07"/>
<circle cx="1126" cy="136" r="0.9" fill="#58a6ff" fill-opacity="0.07"/>
<circle cx="1156" cy="136" r="0.9" fill="#58a6ff" fill-opacity="0.07"/>
<circle cx="1186" cy="136" r="0.9" fill="#58a6ff" fill-opacity="0.07"/>
<circle cx="16" cy="166" r="0.9" fill="#58a6ff" fill-opacity="0.07"/>
<circle cx="46" cy="166" r="0.9" fill="#58a6ff" fill-opacity="0.07"/>
<circle cx="76" cy="166" r="0.9" fill="#58a6ff" fill-opacity="0.07"/>
<circle cx="106" cy="166" r="0.9" fill="#58a6ff" fill-opacity="0.07"/>
<circle cx="136" cy="166" r="0.9" fill="#58a6ff" fill-opacity="0.07"/>
<circle cx="166" cy="166" r="0.9" fill="#58a6ff" fill-opacity="0.07"/>
<circle cx="196" cy="166" r="0.9" fill="#58a6ff" fill-opacity="0.07"/>
<circle cx="226" cy="166" r="0.9" fill="#58a6ff" fill-opacity="0.07"/>
<circle cx="256" cy="166" r="0.9" fill="#58a6ff" fill-opacity="0.07"/>
<circle cx="286" cy="166" r="0.9" fill="#58a6ff" fill-opacity="0.07"/>
<circle cx="316" cy="166" r="0.9" fill="#58a6ff" fill-opacity="0.07"/>
<circle cx="346" cy="166" r="0.9" fill="#58a6ff" fill-opacity="0.07"/>
<circle cx="376" cy="166" r="0.9" fill="#58a6ff" fill-opacity="0.07"/>
<circle cx="406" cy="166" r="0.9" fill="#58a6ff" fill-opacity="0.07"/>
<circle cx="436" cy="166" r="0.9" fill="#58a6ff" fill-opacity="0.07"/>
<circle cx="466" cy="166" r="0.9" fill="#58a6ff" fill-opacity="0.07"/>
<circle cx="496" cy="166" r="0.9" fill="#58a6ff" fill-opacity="0.07"/>
<circle cx="526" cy="166" r="0.9" fill="#58a6ff" fill-opacity="0.07"/>
<circle cx="556" cy="166" r="0.9" fill="#58a6ff" fill-opacity="0.07"/>
<circle cx="586" cy="166" r="0.9" fill="#58a6ff" fill-opacity="0.07"/>
<circle cx="616" cy="166" r="0.9" fill="#58a6ff" fill-opacity="0.07"/>
<circle cx="646" cy="166" r="0.9" fill="#58a6ff" fill-opacity="0.07"/>
<circle cx="676" cy="166" r="0.9" fill="#58a6ff" fill-opacity="0.07"/>
<circle cx="706" cy="166" r="0.9" fill="#58a6ff" fill-opacity="0.07"/>
<circle cx="736" cy="166" r="0.9" fill="#58a6ff" fill-opacity="0.07"/>
<circle cx="766" cy="166" r="0.9" fill="#58a6ff" fill-opacity="0.07"/>
<circle cx="796" cy="166" r="0.9" fill="#58a6ff" fill-opacity="0.07"/>
<circle cx="826" cy="166" r="0.9" fill="#58a6ff" fill-opacity="0.07"/>
<circle cx="856" cy="166" r="0.9" fill="#58a6ff" fill-opacity="0.07"/>
<circle cx="886" cy="166" r="0.9" fill="#58a6ff" fill-opacity="0.07"/>
<circle cx="916" cy="166" r="0.9" fill="#58a6ff" fill-opacity="0.07"/>
<circle cx="946" cy="166" r="0.9" fill="#58a6ff" fill-opacity="0.07"/>
<circle cx="976" cy="166" r="0.9" fill="#58a6ff" fill-opacity="0.07"/>
<circle cx="1006" cy="166" r="0.9" fill="#58a6ff" fill-opacity="0.07"/>
<circle cx="1036" cy="166" r="0.9" fill="#58a6ff" fill-opacity="0.07"/>
<circle cx="1066" cy="166" r="0.9" fill="#58a6ff" fill-opacity="0.07"/>
<circle cx="1096" cy="166" r="0.9" fill="#58a6ff" fill-opacity="0.07"/>
<circle cx="1126" cy="166" r="0.9" fill="#58a6ff" fill-opacity="0.07"/>
<circle cx="1156" cy="166" r="0.9" fill="#58a6ff" fill-opacity="0.07"/>
<circle cx="1186" cy="166" r="0.9" fill="#58a6ff" fill-opacity="0.07"/>
<circle cx="16" cy="196" r="0.9" fill="#58a6ff" fill-opacity="0.07"/>
<circle cx="46" cy="196" r="0.9" fill="#58a6ff" fill-opacity="0.07"/>
<circle cx="76" cy="196" r="0.9" fill="#58a6ff" fill-opacity="0.07"/>
<circle cx="106" cy="196" r="0.9" fill="#58a6ff" fill-opacity="0.07"/>
<circle cx="136" cy="196" r="0.9" fill="#58a6ff" fill-opacity="0.07"/>
<circle cx="166" cy="196" r="0.9" fill="#58a6ff" fill-opacity="0.07"/>
<circle cx="196" cy="196" r="0.9" fill="#58a6ff" fill-opacity="0.07"/>
<circle cx="226" cy="196" r="0.9" fill="#58a6ff" fill-opacity="0.07"/>
<circle cx="256" cy="196" r="0.9" fill="#58a6ff" fill-opacity="0.07"/>
<circle cx="286" cy="196" r="0.9" fill="#58a6ff" fill-opacity="0.07"/>
<circle cx="316" cy="196" r="0.9" fill="#58a6ff" fill-opacity="0.07"/>
<circle cx="346" cy="196" r="0.9" fill="#58a6ff" fill-opacity="0.07"/>
<circle cx="376" cy="196" r="0.9" fill="#58a6ff" fill-opacity="0.07"/>
<circle cx="406" cy="196" r="0.9" fill="#58a6ff" fill-opacity="0.07"/>
<circle cx="436" cy="196" r="0.9" fill="#58a6ff" fill-opacity="0.07"/>
<circle cx="466" cy="196" r="0.9" fill="#58a6ff" fill-opacity="0.07"/>
<circle cx="496" cy="196" r="0.9" fill="#58a6ff" fill-opacity="0.07"/>
<circle cx="526" cy="196" r="0.9" fill="#58a6ff" fill-opacity="0.07"/>
<circle cx="556" cy="196" r="0.9" fill="#58a6ff" fill-opacity="0.07"/>
<circle cx="586" cy="196" r="0.9" fill="#58a6ff" fill-opacity="0.07"/>
<circle cx="616" cy="196" r="0.9" fill="#58a6ff" fill-opacity="0.07"/>
<circle cx="646" cy="196" r="0.9" fill="#58a6ff" fill-opacity="0.07"/>
<circle cx="676" cy="196" r="0.9" fill="#58a6ff" fill-opacity="0.07"/>
<circle cx="706" cy="196" r="0.9" fill="#58a6ff" fill-opacity="0.07"/>
<circle cx="736" cy="196" r="0.9" fill="#58a6ff" fill-opacity="0.07"/>
<circle cx="766" cy="196" r="0.9" fill="#58a6ff" fill-opacity="0.07"/>
<circle cx="796" cy="196" r="0.9" fill="#58a6ff" fill-opacity="0.07"/>
<circle cx="826" cy="196" r="0.9" fill="#58a6ff" fill-opacity="0.07"/>
<circle cx="856" cy="196" r="0.9" fill="#58a6ff" fill-opacity="0.07"/>
<circle cx="886" cy="196" r="0.9" fill="#58a6ff" fill-opacity="0.07"/>
<circle cx="916" cy="196" r="0.9" fill="#58a6ff" fill-opacity="0.07"/>
<circle cx="946" cy="196" r="0.9" fill="#58a6ff" fill-opacity="0.07"/>
<circle cx="976" cy="196" r="0.9" fill="#58a6ff" fill-opacity="0.07"/>
<circle cx="1006" cy="196" r="0.9" fill="#58a6ff" fill-opacity="0.07"/>
<circle cx="1036" cy="196" r="0.9" fill="#58a6ff" fill-opacity="0.07"/>
<circle cx="1066" cy="196" r="0.9" fill="#58a6ff" fill-opacity="0.07"/>
<circle cx="1096" cy="196" r="0.9" fill="#58a6ff" fill-opacity="0.07"/>
<circle cx="1126" cy="196" r="0.9" fill="#58a6ff" fill-opacity="0.07"/>
<circle cx="1156" cy="196" r="0.9" fill="#58a6ff" fill-opacity="0.07"/>
<circle cx="1186" cy="196" r="0.9" fill="#58a6ff" fill-opacity="0.07"/>
<circle cx="16" cy="226" r="0.9" fill="#58a6ff" fill-opacity="0.07"/>
<circle cx="46" cy="226" r="0.9" fill="#58a6ff" fill-opacity="0.07"/>
<circle cx="76" cy="226" r="0.9" fill="#58a6ff" fill-opacity="0.07"/>
<circle cx="106" cy="226" r="0.9" fill="#58a6ff" fill-opacity="0.07"/>
<circle cx="136" cy="226" r="0.9" fill="#58a6ff" fill-opacity="0.07"/>
<circle cx="166" cy="226" r="0.9" fill="#58a6ff" fill-opacity="0.07"/>
<circle cx="196" cy="226" r="0.9" fill="#58a6ff" fill-opacity="0.07"/>
<circle cx="226" cy="226" r="0.9" fill="#58a6ff" fill-opacity="0.07"/>
<circle cx="256" cy="226" r="0.9" fill="#58a6ff" fill-opacity="0.07"/>
<circle cx="286" cy="226" r="0.9" fill="#58a6ff" fill-opacity="0.07"/>
<circle cx="316" cy="226" r="0.9" fill="#58a6ff" fill-opacity="0.07"/>
<circle cx="346" cy="226" r="0.9" fill="#58a6ff" fill-opacity="0.07"/>
<circle cx="376" cy="226" r="0.9" fill="#58a6ff" fill-opacity="0.07"/>
<circle cx="406" cy="226" r="0.9" fill="#58a6ff" fill-opacity="0.07"/>
<circle cx="436" cy="226" r="0.9" fill="#58a6ff" fill-opacity="0.07"/>
<circle cx="466" cy="226" r="0.9" fill="#58a6ff" fill-opacity="0.07"/>
<circle cx="496" cy="226" r="0.9" fill="#58a6ff" fill-opacity="0.07"/>
<circle cx="526" cy="226" r="0.9" fill="#58a6ff" fill-opacity="0.07"/>
<circle cx="556" cy="226" r="0.9" fill="#58a6ff" fill-opacity="0.07"/>
<circle cx="586" cy="226" r="0.9" fill="#58a6ff" fill-opacity="0.07"/>
<circle cx="616" cy="226" r="0.9" fill="#58a6ff" fill-opacity="0.07"/>
<circle cx="646" cy="226" r="0.9" fill="#58a6ff" fill-opacity="0.07"/>
<circle cx="676" cy="226" r="0.9" fill="#58a6ff" fill-opacity="0.07"/>
<circle cx="706" cy="226" r="0.9" fill="#58a6ff" fill-opacity="0.07"/>
<circle cx="736" cy="226" r="0.9" fill="#58a6ff" fill-opacity="0.07"/>
<circle cx="766" cy="226" r="0.9" fill="#58a6ff" fill-opacity="0.07"/>
<circle cx="796" cy="226" r="0.9" fill="#58a6ff" fill-opacity="0.07"/>
<circle cx="826" cy="226" r="0.9" fill="#58a6ff" fill-opacity="0.07"/>
<circle cx="856" cy="226" r="0.9" fill="#58a6ff" fill-opacity="0.07"/>
<circle cx="886" cy="226" r="0.9" fill="#58a6ff" fill-opacity="0.07"/>
<circle cx="916" cy="226" r="0.9" fill="#58a6ff" fill-opacity="0.07"/>
<circle cx="946" cy="226" r="0.9" fill="#58a6ff" fill-opacity="0.07"/>
<circle cx="976" cy="226" r="0.9" fill="#58a6ff" fill-opacity="0.07"/>
<circle cx="1006" cy="226" r="0.9" fill="#58a6ff" fill-opacity="0.07"/>
<circle cx="1036" cy="226" r="0.9" fill="#58a6ff" fill-opacity="0.07"/>
<circle cx="1066" cy="226" r="0.9" fill="#58a6ff" fill-opacity="0.07"/>
<circle cx="1096" cy="226" r="0.9" fill="#58a6ff" fill-opacity="0.07"/>
<circle cx="1126" cy="226" r="0.9" fill="#58a6ff" fill-opacity="0.07"/>
<circle cx="1156" cy="226" r="0.9" fill="#58a6ff" fill-opacity="0.07"/>
<circle cx="1186" cy="226" r="0.9" fill="#58a6ff" fill-opacity="0.07"/>
<circle cx="16" cy="256" r="0.9" fill="#58a6ff" fill-opacity="0.07"/>
<circle cx="46" cy="256" r="0.9" fill="#58a6ff" fill-opacity="0.07"/>
<circle cx="76" cy="256" r="0.9" fill="#58a6ff" fill-opacity="0.07"/>
<circle cx="106" cy="256" r="0.9" fill="#58a6ff" fill-opacity="0.07"/>
<circle cx="136" cy="256" r="0.9" fill="#58a6ff" fill-opacity="0.07"/>
<circle cx="166" cy="256" r="0.9" fill="#58a6ff" fill-opacity="0.07"/>
<circle cx="196" cy="256" r="0.9" fill="#58a6ff" fill-opacity="0.07"/>
<circle cx="226" cy="256" r="0.9" fill="#58a6ff" fill-opacity="0.07"/>
<circle cx="256" cy="256" r="0.9" fill="#58a6ff" fill-opacity="0.07"/>
<circle cx="286" cy="256" r="0.9" fill="#58a6ff" fill-opacity="0.07"/>
<circle cx="316" cy="256" r="0.9" fill="#58a6ff" fill-opacity="0.07"/>
<circle cx="346" cy="256" r="0.9" fill="#58a6ff" fill-opacity="0.07"/>
<circle cx="376" cy="256" r="0.9" fill="#58a6ff" fill-opacity="0.07"/>
<circle cx="406" cy="256" r="0.9" fill="#58a6ff" fill-opacity="0.07"/>
<circle cx="436" cy="256" r="0.9" fill="#58a6ff" fill-opacity="0.07"/>
<circle cx="466" cy="256" r="0.9" fill="#58a6ff" fill-opacity="0.07"/>
<circle cx="496" cy="256" r="0.9" fill="#58a6ff" fill-opacity="0.07"/>
<circle cx="526" cy="256" r="0.9" fill="#58a6ff" fill-opacity="0.07"/>
<circle cx="556" cy="256" r="0.9" fill="#58a6ff" fill-opacity="0.07"/>
<circle cx="586" cy="256" r="0.9" fill="#58a6ff" fill-opacity="0.07"/>
<circle cx="616" cy="256" r="0.9" fill="#58a6ff" fill-opacity="0.07"/>
<circle cx="646" cy="256" r="0.9" fill="#58a6ff" fill-opacity="0.07"/>
<circle cx="676" cy="256" r="0.9" fill="#58a6ff" fill-opacity="0.07"/>
<circle cx="706" cy="256" r="0.9" fill="#58a6ff" fill-opacity="0.07"/>
<circle cx="736" cy="256" r="0.9" fill="#58a6ff" fill-opacity="0.07"/>
<circle cx="766" cy="256" r="0.9" fill="#58a6ff" fill-opacity="0.07"/>
<circle cx="796" cy="256" r="0.9" fill="#58a6ff" fill-opacity="0.07"/>
<circle cx="826" cy="256" r="0.9" fill="#58a6ff" fill-opacity="0.07"/>
<circle cx="856" cy="256" r="0.9" fill="#58a6ff" fill-opacity="0.07"/>
<circle cx="886" cy="256" r="0.9" fill="#58a6ff" fill-opacity="0.07"/>
<circle cx="916" cy="256" r="0.9" fill="#58a6ff" fill-opacity="0.07"/>
<circle cx="946" cy="256" r="0.9" fill="#58a6ff" fill-opacity="0.07"/>
<circle cx="976" cy="256" r="0.9" fill="#58a6ff" fill-opacity="0.07"/>
<circle cx="1006" cy="256" r="0.9" fill="#58a6ff" fill-opacity="0.07"/>
<circle cx="1036" cy="256" r="0.9" fill="#58a6ff" fill-opacity="0.07"/>
<circle cx="1066" cy="256" r="0.9" fill="#58a6ff" fill-opacity="0.07"/>
<circle cx="1096" cy="256" r="0.9" fill="#58a6ff" fill-opacity="0.07"/>
<circle cx="1126" cy="256" r="0.9" fill="#58a6ff" fill-opacity="0.07"/>
<circle cx="1156" cy="256" r="0.9" fill="#58a6ff" fill-opacity="0.07"/>
<circle cx="1186" cy="256" r="0.9" fill="#58a6ff" fill-opacity="0.07"/>
<circle cx="1010" cy="140" r="290" fill="url(#glow)"/>
<circle cx="1010" cy="140" r="100" fill="url(#core)"/>
<circle cx="1010" cy="140" r="100" fill="none" stroke="#58a6ff" stroke-opacity="0.32" stroke-width="1"/>
<circle cx="1010" cy="140" r="78" fill="none" stroke="#58a6ff" stroke-opacity="0.2" stroke-width="1"/>
<circle cx="1010" cy="140" r="56" fill="none" stroke="#58a6ff" stroke-opacity="0.14" stroke-width="1"/>
<circle cx="1010" cy="140" r="34" fill="none" stroke="#58a6ff" stroke-opacity="0.1" stroke-width="1"/>
<circle cx="1010.0" cy="62.0" r="3.0" fill="#7ee0c8" fill-opacity="0.62"/>
<circle cx="1034.1" cy="65.8" r="3.0" fill="#7ee0c8" fill-opacity="0.62"/>
<circle cx="1055.8" cy="76.9" r="3.0" fill="#7ee0c8" fill-opacity="0.62"/>
<circle cx="1073.1" cy="94.2" r="3.0" fill="#7ee0c8" fill-opacity="0.62"/>
<circle cx="1084.2" cy="115.9" r="3.0" fill="#7ee0c8" fill-opacity="0.62"/>
<circle cx="1088.0" cy="140.0" r="3.0" fill="#7ee0c8" fill-opacity="0.62"/>
<circle cx="1084.2" cy="164.1" r="3.0" fill="#7ee0c8" fill-opacity="0.62"/>
<circle cx="1073.1" cy="185.8" r="3.0" fill="#7ee0c8" fill-opacity="0.62"/>
<circle cx="1055.8" cy="203.1" r="3.0" fill="#7ee0c8" fill-opacity="0.62"/>
<circle cx="1034.1" cy="214.2" r="3.0" fill="#7ee0c8" fill-opacity="0.62"/>
<circle cx="1010.0" cy="218.0" r="3.0" fill="#7ee0c8" fill-opacity="0.62"/>
<circle cx="985.9" cy="214.2" r="3.0" fill="#7ee0c8" fill-opacity="0.62"/>
<circle cx="964.2" cy="203.1" r="3.0" fill="#7ee0c8" fill-opacity="0.62"/>
<circle cx="946.9" cy="185.8" r="3.0" fill="#7ee0c8" fill-opacity="0.62"/>
<circle cx="935.8" cy="164.1" r="3.0" fill="#7ee0c8" fill-opacity="0.62"/>
<circle cx="932.0" cy="140.0" r="3.0" fill="#7ee0c8" fill-opacity="0.62"/>
<circle cx="935.8" cy="115.9" r="3.0" fill="#7ee0c8" fill-opacity="0.62"/>
<circle cx="946.9" cy="94.2" r="3.0" fill="#7ee0c8" fill-opacity="0.62"/>
<circle cx="964.2" cy="76.9" r="3.0" fill="#7ee0c8" fill-opacity="0.62"/>
<circle cx="985.9" cy="65.8" r="3.0" fill="#7ee0c8" fill-opacity="0.62"/>
<rect width="1200" height="3" fill="url(#topbar)"/>
<text x="72" y="96" font-family="'Inter','Helvetica Neue',Helvetica,Arial,'PingFang SC','Hiragino Sans GB','Microsoft YaHei','Noto Sans CJK SC',sans-serif" font-size="42" font-weight="600" fill="#e8eef7" letter-spacing="0.6">Huiyang Lin<tspan font-size="23" font-weight="400" fill="#7d8590" letter-spacing="0" dx="18">林晖洋</tspan></text>
<rect x="72" y="122" width="248" height="2" rx="1" fill="url(#rule)"/>
<text x="72" y="170" font-family="'Inter','Helvetica Neue',Helvetica,Arial,'PingFang SC','Hiragino Sans GB','Microsoft YaHei','Noto Sans CJK SC',sans-serif" font-size="21" fill="#b6c6de">AI agents <tspan fill="#7ee0c8">×</tspan> auditable automation</text>
<text x="72" y="201" font-family="'Inter','Helvetica Neue',Helvetica,Arial,'PingFang SC','Hiragino Sans GB','Microsoft YaHei','Noto Sans CJK SC',sans-serif" font-size="14.5" fill="#6e7f9b">JUNO energy calibration · agent tooling · physics benchmarks</text>
<text x="72" y="245" font-family="'Inter','Helvetica Neue',Helvetica,Arial,'PingFang SC','Hiragino Sans GB','Microsoft YaHei','Noto Sans CJK SC',sans-serif" font-size="13" fill="#5b6b87">Undergraduate · School of Physics and Technology, Wuhan University</text>
</svg>
